<svg version="1.1" xmlns="http://www.w3.org/2000/svg" xmlns:xlink="http://www.w3.org/1999/xlink" viewBox="135 160 1800 200">
<style type="text/css">
  .st1{fill:#FFFFFF;}
  .st2{fill:#F26C21;}
  .st3{fill:#1E293B;}
</style>
<g>
  <!-- Logo icon part - enlarged -->
  <g transform="scale(1.75) translate(-110, -45)">
    <circle class="st2" cx="220.3" cy="187.3" r="14.9"/>
    <circle class="st2" cx="293.7" cy="187.3" r="14.9"/>
    <circle class="st2" cx="256.9" cy="223.9" r="14.9"/>
    <circle class="st3" cx="256.9" cy="157.4" r="14.9"/>
    <polygon class="st2" points="295.6,189.1 256.9,227.8 218.3,189.2 222.2,185.3 256.9,220 291.7,185.2"/>
  </g>
  
  <!-- Text part - enlarged -->
  <g transform="scale(1.75) translate(-110, -45)">
    <path class="st1" d="M330.6,213.8v-44.4h39.5v11.2h-27v5.3h26v11.1h-26v5.6h27v11.2H330.6z"/>
    <path class="st1" d="M373.6,213.8v-44.4h12.5v33.2h25.7v11.2H373.6z"/>
    <path class="st1" d="M415.1,213.8v-44.4h39.4v11.2h-27v5.3h26v11.1h-26v5.6h27v11.2H415.1z"/>
    <path class="st1" d="M455.4,213.8l16.8-21.8v-0.9l-16.8-21.7h16.3l10.7,14.4h0.9l10.1-14.4h16.3l-16.7,22v0.9l16.7,21.5h-16.3
      l-10.7-14.5h-0.9l-10.2,14.5H455.4z"/>
    <path class="st1" d="M525.8,213.8v-33.2h-15.7v-11.2H554v11.2h-15.6v33.2H525.8z"/>
    <path class="st1" d="M557,213.8v-44.4h25.9c11.7,0,17.9,4.9,17.9,13.6c0,7-3.5,11.2-12,12.3v0.7c4.6,1.2,6,3.4,7.7,6.8l5.5,11.1
      h-14.4l-5.3-10.9c-1.6-3.3-2.9-4.2-7.8-4.2h-5.1v15.1H557z M569.4,189.4h13.3c3.6,0,5-0.7,5-4.4c0-3.5-1.3-4.4-5-4.4h-13.3V189.4
      z"/>
    <path class="st1" d="M604,213.8v-44.4h12.5v44.4H604z"/>
    <path class="st1" d="M619.8,191.6c0-13.9,9.2-22.9,24.6-22.9c15.8,0,24.9,9,24.9,22.9c0,13.9-9,22.9-24.9,22.9
      C628.9,214.5,619.8,205.5,619.8,191.6z M656,191.6c0-8.8-2.6-10.9-11.6-10.9c-9,0-11.3,2.1-11.3,10.9c0,8.8,2.3,10.9,11.3,10.9
      C653.4,202.6,656,200.4,656,191.6z"/>
    <path class="st1" d="M679.2,213.8l19.2-44.4h17.8l19.2,44.4h-14.3l-3.4-8.2h-21.1l-3.4,8.2H679.2z M701.4,194.4h11.8l-2.6-6.2
      l-2.9-7.5h-0.9l-2.9,7.5L701.4,194.4z"/>
    <path class="st1" d="M736.5,195.2v-25.8H749v24.8c0,6.3,1.8,8.2,10.2,8.2c8.4,0,10.2-1.9,10.2-8.2v-24.8h12.5v25.8
      c0,11.8-7.2,19.3-22.7,19.3C743.7,214.5,736.5,207,736.5,195.2z"/>
    <path class="st1" d="M800.4,213.8v-33.2h-15.7v-11.2h43.8v11.2h-15.7v33.2H800.4z"/>
    <path class="st1" d="M830.8,191.6c0-13.9,9.2-22.9,24.6-22.9c15.8,0,24.9,9,24.9,22.9c0,13.9-9,22.9-24.9,22.9
      C840,214.5,830.8,205.5,830.8,191.6z M867,191.6c0-8.8-2.6-10.9-11.6-10.9c-9,0-11.3,2.1-11.3,10.9c0,8.8,2.3,10.9,11.3,10.9
      C864.4,202.6,867,200.4,867,191.6z"/>
    <path class="st1" d="M883.6,213.8v-44.4h16.9l8.2,18.4l4.4,11.5h0.9l4.2-11.5l7.8-18.4h16.9v44.4h-12.5v-18.4l0.5-7.4h-0.9
      l-2.5,7.4l-6.6,15.7h-15.1l-6.6-15.7l-2.5-7.4h-0.9l0.5,7.4v18.4H883.6z"/>
    <path class="st1" d="M944.1,213.8l19.2-44.4h17.8l19.2,44.4H986l-3.4-8.2h-21.1l-3.4,8.2H944.1z M966.3,194.4h11.8l-2.6-6.2
      l-2.9-7.5h-0.9l-2.9,7.5L966.3,194.4z"/>
    <path class="st1" d="M1016.4,213.8v-33.2h-15.7v-11.2h43.8v11.2h-15.6v33.2H1016.4z"/>
    <path class="st1" d="M1047.5,213.8v-44.4h12.5v44.4H1047.5z"/>
    <path class="st1" d="M1063.3,191.6c0-13.9,9.1-22.9,24.6-22.9c15.8,0,24.9,9,24.9,22.9c0,13.9-9,22.9-24.9,22.9
      C1072.5,214.5,1063.3,205.5,1063.3,191.6z M1099.5,191.6c0-8.8-2.6-10.9-11.6-10.9c-9,0-11.3,2.1-11.3,10.9
      c0,8.8,2.3,10.9,11.3,10.9C1096.9,202.6,1099.5,200.4,1099.5,191.6z"/>
    <path class="st1" d="M1116.1,213.8v-44.4h13.3l12.3,16.6l6.5,10.2h0.9l-0.6-9.7v-17.2h12.5v44.4h-13.3l-13.1-17.1l-5.6-8.8h-0.9
      l0.5,8.5v17.4H1116.1z"/>
  </g>
</g>
</svg>